<svg version="1.1" id="Layer_1" xmlns="http://www.w3.org/2000/svg" xmlns:xlink="http://www.w3.org/1999/xlink" x="0px" y="0px"
	 width="100%" viewBox="0 0 512 512" enable-background="new 0 0 512 512" xml:space="preserve">
<path fill="#FFFFFF" opacity="1.000000" stroke="none" 
	d="
M1.000000,199.000000 
	C1.000000,132.666672 1.000000,66.833336 1.000000,1.000000 
	C171.666672,1.000000 342.333344,1.000000 513.000000,1.000000 
	C513.000000,171.666672 513.000000,342.333344 513.000000,513.000000 
	C342.333344,513.000000 171.666672,513.000000 1.000000,513.000000 
	C1.000000,408.500000 1.000000,304.000000 1.000000,199.000000 
M511.988068,280.073730 
	C511.988068,209.182785 511.988068,138.291840 511.988068,66.999924 
	C510.161621,66.999924 508.708191,66.999931 507.254791,66.999931 
	C419.999023,66.999962 332.743256,66.999176 245.487473,67.006836 
	C243.992859,67.006966 242.498260,67.109093 240.098282,67.005775 
	C236.731049,67.057823 233.363800,67.109863 229.205353,67.012489 
	C228.136780,67.063889 227.068207,67.115295 225.073730,67.011803 
	C150.844543,67.011803 76.615356,67.011803 2.000001,67.011803 
	C2.000001,68.855873 2.000002,70.311333 2.000002,71.766785 
	C1.999997,182.516342 1.999415,293.265900 2.006909,404.015472 
	C2.006999,405.343506 2.111073,406.671509 2.012163,408.789795 
	C2.062577,409.858673 2.112992,410.927582 2.005781,412.907196 
	C2.058117,416.609375 2.110453,420.311584 2.012450,424.938660 
	C2.012450,434.201263 2.012450,443.463867 2.012450,453.000366 
	C3.801271,453.000366 5.106624,453.000366 6.411977,453.000366 
	C116.945801,453.000305 227.479630,453.000854 338.013458,452.993439 
	C339.341125,452.993347 340.668793,452.890900 342.922424,452.994080 
	C354.282715,452.941742 365.643005,452.889404 377.929504,452.987549 
	C422.598206,452.987549 467.266907,452.987549 512.000305,452.987549 
	C512.000305,442.626251 512.012329,432.976929 511.998108,423.327667 
	C511.949371,390.219604 511.891479,357.111572 511.994049,323.077393 
	C511.941254,310.050476 511.888458,297.023590 511.986084,283.254700 
	C511.934998,282.502991 511.883881,281.751251 511.988068,280.073730 
z"/>
<path fill="#050505" opacity="1.000000" stroke="none" 
	d="
M377.003296,452.837036 
	C365.643005,452.889404 354.282715,452.941742 342.405548,452.600769 
	C341.218506,451.818390 340.548340,451.429352 339.605225,450.957520 
	C338.874268,450.290161 338.416229,449.705566 337.887756,448.896118 
	C337.678070,448.373962 337.460144,448.154938 336.996948,447.655518 
	C336.225037,446.170898 335.292908,445.106415 335.067719,443.908997 
	C333.636749,436.300415 332.539642,428.624420 330.921356,421.058594 
	C330.466827,418.933655 329.090027,416.156128 327.345825,415.312836 
	C321.636047,412.552338 315.551605,410.571838 309.630554,408.242340 
	C296.425568,403.047180 286.666504,392.920013 276.778259,383.542328 
	C269.974426,377.089722 266.175629,367.578857 260.293762,360.009888 
	C255.297806,353.580963 252.316132,346.388092 250.027100,338.852661 
	C245.367813,323.514191 243.289932,307.976379 244.765640,291.756042 
	C246.043945,277.705536 248.873215,264.313446 255.643448,252.029160 
	C260.937622,242.423035 266.508392,232.827042 273.180542,224.170120 
	C278.061340,217.837402 284.864471,212.962570 290.943756,207.588333 
	C293.566620,205.269623 295.144135,202.930984 292.917786,199.605820 
	C291.163361,196.985504 289.162994,194.528473 287.436096,191.891373 
	C281.286835,182.500885 275.234924,173.046722 269.094818,163.650208 
	C262.426727,153.445709 255.707993,143.274246 248.998322,133.096954 
	C245.367249,127.589325 241.782516,122.048584 238.022430,116.629951 
	C236.733322,114.772202 235.037613,112.961113 232.990631,116.116524 
	C227.339340,124.828018 221.625259,133.498901 215.995132,142.223999 
	C210.613480,150.564026 205.399963,159.013763 199.943451,167.303986 
	C192.424377,178.727905 184.618713,189.964386 177.173096,201.435165 
	C169.956635,212.552887 163.025406,223.856171 156.014984,235.106659 
	C155.312286,236.234360 154.928604,237.560852 154.396851,238.795074 
	C156.141769,238.782867 158.386215,239.468674 159.545929,238.638748 
	C164.828552,234.858215 169.867035,230.725174 174.880646,226.582535 
	C184.980133,218.237595 194.906570,209.680161 205.105957,201.460510 
	C210.036285,197.487167 215.113190,197.304382 219.079651,200.701797 
	C221.673004,202.923096 223.698120,205.798706 226.044952,208.318649 
	C232.270493,215.003342 238.294205,221.900543 244.853760,228.241989 
	C250.309769,233.516571 252.307129,238.975952 249.503128,244.020065 
	C245.781219,250.715408 242.110916,257.439423 238.394516,264.137848 
	C236.353607,267.816345 234.450470,271.321655 229.519608,272.237671 
	C223.405350,273.373596 217.527222,275.916626 211.395981,276.785248 
	C205.788818,277.579620 204.233810,281.106812 204.110474,285.456024 
	C203.798874,296.443420 203.858398,307.448364 204.062378,318.440826 
	C204.187531,325.183929 206.449188,327.695038 213.016418,328.952240 
	C217.623856,329.834259 222.424042,329.898499 226.915421,331.136139 
	C230.308167,332.071045 234.794891,333.470184 236.267395,336.085632 
	C240.259003,343.175232 242.926773,351.013367 246.075806,358.572876 
	C247.718323,362.515869 250.281235,366.193054 246.057236,370.507202 
	C242.576614,374.062134 239.813828,378.375824 237.059296,382.567749 
	C234.908997,385.840118 231.823227,389.166321 235.744507,393.427124 
	C238.273636,396.175232 240.198364,399.488861 242.782822,402.174896 
	C249.187714,408.831696 255.870071,415.220734 262.325836,421.829803 
	C264.666199,424.225739 270.847992,425.078522 273.562286,422.902893 
	C277.632141,419.640625 281.451111,416.041534 285.691895,413.029327 
	C287.156555,411.988953 289.940765,411.418732 291.473907,412.097717 
	C298.927673,415.398682 306.216492,419.092712 313.419708,422.918640 
	C314.635315,423.564331 316.072205,425.796906 315.779602,426.839722 
	C315.255402,428.707947 313.781769,430.656647 312.153381,431.751007 
	C310.991669,432.531769 308.927460,432.002136 307.265991,432.002228 
	C210.632355,432.007416 113.998528,431.930634 17.365515,432.176514 
	C10.851385,432.193085 6.536658,430.080719 2.954275,424.893982 
	C2.700003,424.375122 2.466709,424.156738 2.162789,424.013763 
	C2.110453,420.311584 2.058117,416.609375 2.398663,412.398254 
	C3.180379,411.220398 3.569214,410.551514 3.977857,409.512604 
	C4.672135,407.692139 5.175475,406.128693 6.047385,404.808655 
	C15.430843,390.602661 24.937449,376.477661 34.272846,362.240356 
	C39.588879,354.132904 44.601871,345.827454 49.840698,337.668518 
	C55.949432,328.154816 62.164349,318.709351 68.316437,309.223419 
	C71.982018,303.571411 75.563805,297.864410 79.275002,292.242706 
	C85.208527,283.254608 91.241341,274.332092 97.188995,265.353271 
	C102.374146,257.525543 107.490601,249.652344 112.653534,241.809860 
	C121.748314,227.994904 130.894501,214.213562 139.938477,200.365448 
	C143.669556,194.652435 147.094269,188.739197 150.831039,183.030045 
	C157.573685,172.728455 164.533417,162.568497 171.237991,152.242584 
	C176.960709,143.428848 182.283173,134.353027 188.085602,125.593781 
	C197.244995,111.766945 206.714432,98.145851 215.935623,84.359406 
	C219.562805,78.936432 221.965851,72.600151 228.197525,68.942436 
	C229.010101,68.336594 229.503342,67.749252 229.996567,67.161911 
	C233.363800,67.109863 236.731049,67.057823 240.604584,67.398712 
	C241.779633,68.180481 242.448410,68.569313 243.470032,68.976303 
	C245.431305,70.365829 247.434937,71.468719 248.580139,73.154716 
	C253.711578,80.709274 258.644623,88.400444 263.563141,96.097366 
	C271.098846,107.889854 278.536407,119.745064 286.066345,131.541245 
	C293.768494,143.607117 301.518188,155.642700 309.273651,167.674408 
	C313.599762,174.385910 317.909149,181.110229 322.369598,187.732071 
	C324.215332,190.472092 326.980072,191.208130 329.481873,188.837555 
	C331.334900,187.081711 333.289520,184.790283 333.836029,182.422836 
	C335.283630,176.151932 336.097534,169.724670 336.967194,163.332886 
	C338.067749,155.244598 343.299225,151.452347 349.810822,151.861328 
	C358.426514,152.402451 367.101807,151.992813 375.751495,151.994492 
	C383.400391,151.995972 388.444336,155.966934 389.955322,163.672180 
	C390.919922,168.591110 391.221619,173.636353 392.039948,178.588699 
	C392.922546,183.929611 393.523621,189.230240 400.416901,190.988647 
	C405.955780,192.401535 411.436188,194.583466 416.471130,197.298386 
	C423.078552,200.861206 427.376831,201.023743 431.829926,196.549835 
	C435.066010,193.298676 438.197601,189.916138 441.667114,186.930710 
	C447.638397,181.792526 454.925629,181.329102 459.162231,185.682571 
	C466.382477,193.101990 473.579803,200.547836 480.617554,208.139450 
	C486.640503,214.636368 486.391022,219.390808 480.682983,226.168823 
	C476.297882,231.375977 472.237244,236.866638 468.216095,242.365631 
	C466.276733,245.017807 465.316803,247.856537 466.919220,251.354767 
	C469.236694,256.414032 471.661713,261.577057 472.853638,266.958740 
	C474.225708,273.153656 477.922333,274.724976 483.451385,275.062073 
	C489.460083,275.428345 495.525604,275.914093 501.389648,277.171875 
	C504.468750,277.832336 507.169922,280.254730 510.059601,282.200226 
	C510.663513,283.011536 511.249573,283.504120 511.835663,283.996674 
	C511.888458,297.023590 511.941254,310.050476 511.623169,323.580444 
	C510.835999,324.668335 510.419678,325.253143 509.659424,325.996277 
	C507.298157,327.103821 505.367706,328.537170 503.248291,328.917358 
	C494.646515,330.460480 485.966736,331.570312 477.369934,333.137390 
	C476.080200,333.372498 474.655212,334.985931 474.018890,336.310547 
	C471.529327,341.493042 469.875366,347.150421 466.889221,352.002594 
	C463.006470,358.311646 464.523590,363.206360 468.778320,368.352966 
	C472.669678,373.060089 476.143127,378.110535 479.875549,382.952057 
	C481.932800,385.620667 481.975525,394.008728 479.902283,396.033478 
	C472.031219,403.720520 463.932678,411.198700 456.439331,419.239624 
	C451.698853,424.326569 445.523132,424.098999 440.398071,419.825012 
	C436.196533,416.321198 432.265411,412.490387 428.255188,408.760681 
	C423.506104,404.343872 420.438965,404.088654 414.164856,406.942413 
	C407.759277,409.855957 401.113892,412.246063 394.737122,415.216614 
	C393.169037,415.947113 391.483582,417.889496 391.146088,419.539459 
	C389.818970,426.027008 388.783691,432.595978 388.074615,439.181519 
	C387.472717,444.771606 384.653931,449.439819 379.767822,451.032837 
	C378.611938,451.628632 377.807617,452.232849 377.003296,452.837036 
M397.922455,370.587830 
	C406.292664,365.764679 414.276611,360.159180 419.866089,352.340637 
	C425.616882,344.296509 430.744843,335.607697 434.777832,326.589417 
	C439.057007,317.020599 437.893311,306.384064 438.086304,296.061096 
	C438.330200,283.016571 433.505585,271.596649 427.142273,260.849701 
	C419.824432,248.490631 409.641754,238.891556 396.721100,232.114014 
	C380.762665,223.742981 364.194000,220.814117 346.385223,223.940018 
	C330.756042,226.683319 317.287140,233.866760 306.179657,244.637802 
	C294.297150,256.160370 286.489349,270.356750 283.947235,287.140350 
	C282.132507,299.121765 282.706421,310.869202 285.951965,322.500610 
	C288.564209,331.862366 292.757050,340.381775 298.586517,348.265472 
	C304.677734,356.503082 311.841339,363.552155 320.527863,368.695984 
	C330.681549,374.708649 341.518097,379.391418 353.766876,379.005035 
	C361.675842,378.755585 369.725952,379.215820 377.445251,377.848083 
	C384.239685,376.644165 390.662476,373.343018 397.922455,370.587830 
z"/>
<path fill="#000000" opacity="1.000000" stroke="none" 
	d="
M2.166610,407.999542 
	C2.111073,406.671509 2.006999,405.343506 2.006909,404.015472 
	C1.999415,293.265900 1.999997,182.516342 2.000002,71.766785 
	C2.000002,70.311333 2.000001,68.855873 2.000001,67.011803 
	C76.615356,67.011803 150.844543,67.011803 225.536865,67.255905 
	C226.000000,67.500000 226.000092,67.833298 225.537079,67.910751 
	C151.178085,67.988197 77.282104,67.988197 3.000000,67.988197 
	C3.000000,70.188599 3.000000,71.977318 3.000000,73.766029 
	C3.000000,183.349670 3.000811,292.933289 2.993069,402.516937 
	C2.992940,404.344574 2.888927,406.172211 2.666695,407.999939 
	C2.500000,408.000000 2.166610,407.999542 2.166610,407.999542 
z"/>
<path fill="#000000" opacity="1.000000" stroke="none" 
	d="
M243.117188,68.958145 
	C242.448410,68.569313 241.779633,68.180481 241.057251,67.477646 
	C242.498260,67.109093 243.992859,67.006966 245.487473,67.006836 
	C332.743256,66.999176 419.999023,66.999962 507.254791,66.999931 
	C508.708191,66.999931 510.161621,66.999924 511.988068,66.999924 
	C511.988068,138.291840 511.988068,209.182785 511.744019,280.536865 
	C511.500000,281.000031 511.167267,281.000549 511.089600,280.537537 
	C511.011963,209.402695 511.011963,138.730820 511.011963,68.000076 
	C422.348755,68.000076 334.433624,67.996483 246.518494,68.039825 
	C245.384583,68.040382 244.250946,68.638786 243.117188,68.958145 
z"/>
<path fill="#000000" opacity="1.000000" stroke="none" 
	d="
M339.878174,451.040314 
	C340.548340,451.429352 341.218506,451.818390 341.942566,452.521851 
	C340.668793,452.890900 339.341125,452.993347 338.013458,452.993439 
	C227.479630,453.000854 116.945801,453.000305 6.411977,453.000366 
	C5.106624,453.000366 3.801271,453.000366 2.012450,453.000366 
	C2.012450,443.463867 2.012450,434.201263 2.087620,424.476196 
	C2.466709,424.156738 2.700003,424.375122 2.932857,425.354645 
	C3.003043,434.634369 3.003043,443.228394 3.003043,451.999390 
	C4.417733,451.999390 5.232648,451.999420 6.047564,451.999420 
	C116.024376,451.999512 226.001190,452.002838 335.977966,451.959839 
	C337.278168,451.959320 338.578125,451.360077 339.878174,451.040314 
z"/>
<path fill="#000000" opacity="1.000000" stroke="none" 
	d="
M510.003357,325.837952 
	C510.419678,325.253143 510.835999,324.668335 511.544708,324.043518 
	C511.891479,357.111572 511.949371,390.219604 511.998108,423.327667 
	C512.012329,432.976929 512.000305,442.626251 512.000305,452.987549 
	C467.266907,452.987549 422.598206,452.987549 377.466400,452.912292 
	C377.807617,452.232849 378.611938,451.628632 379.909943,451.444397 
	C423.807068,451.864380 467.210510,451.864380 510.997803,451.864380 
	C510.997803,450.972839 510.997803,450.351868 510.997803,449.730865 
	C510.998383,409.606201 511.007477,369.481567 510.957855,329.356964 
	C510.956390,328.183563 510.335419,327.010925 510.003357,325.837952 
z"/>
<path fill="#000000" opacity="1.000000" stroke="none" 
	d="
M226.000092,67.833298 
	C226.000092,67.833298 226.000000,67.500000 225.999817,67.333351 
	C227.068207,67.115295 228.136780,67.063889 229.600952,67.087204 
	C229.503342,67.749252 229.010101,68.336594 228.173111,68.622795 
	C227.219604,68.158875 226.609848,67.996086 226.000092,67.833298 
z"/>
<path fill="#000000" opacity="1.000000" stroke="none" 
	d="
M2.089386,408.394653 
	C2.166610,407.999542 2.500000,408.000000 2.744808,408.310608 
	C3.312424,409.041656 3.635231,409.462158 3.958044,409.882629 
	C3.569214,410.551514 3.180379,411.220398 2.477475,411.942871 
	C2.112992,410.927582 2.062577,409.858673 2.089386,408.394653 
z"/>
<path fill="#000000" opacity="1.000000" stroke="none" 
	d="
M511.167297,281.000549 
	C511.167267,281.000549 511.500000,281.000031 511.666382,280.999786 
	C511.883881,281.751251 511.934998,282.502991 511.910889,283.625671 
	C511.249573,283.504120 510.663513,283.011536 510.334167,282.214447 
	C510.783020,281.606812 510.975159,281.303680 511.167297,281.000549 
z"/>
<path fill="#FFFFFF" opacity="1.000000" stroke="none" 
	d="
M3.977851,409.512604 
	C3.635231,409.462158 3.312424,409.041656 2.911503,408.310516 
	C2.888927,406.172211 2.992940,404.344574 2.993069,402.516937 
	C3.000811,292.933289 3.000000,183.349670 3.000000,73.766029 
	C3.000000,71.977318 3.000000,70.188599 3.000000,67.988197 
	C77.282104,67.988197 151.178085,67.988197 225.537079,67.910751 
	C226.609848,67.996086 227.219604,68.158875 227.853775,68.641304 
	C221.965851,72.600151 219.562805,78.936432 215.935623,84.359406 
	C206.714432,98.145851 197.244995,111.766945 188.085602,125.593781 
	C182.283173,134.353027 176.960709,143.428848 171.237991,152.242584 
	C164.533417,162.568497 157.573685,172.728455 150.831039,183.030045 
	C147.094269,188.739197 143.669556,194.652435 139.938477,200.365448 
	C130.894501,214.213562 121.748314,227.994904 112.653534,241.809860 
	C107.490601,249.652344 102.374146,257.525543 97.188995,265.353271 
	C91.241341,274.332092 85.208527,283.254608 79.275002,292.242706 
	C75.563805,297.864410 71.982018,303.571411 68.316437,309.223419 
	C62.164349,318.709351 55.949432,328.154816 49.840698,337.668518 
	C44.601871,345.827454 39.588879,354.132904 34.272846,362.240356 
	C24.937449,376.477661 15.430843,390.602661 6.047385,404.808655 
	C5.175475,406.128693 4.672135,407.692139 3.977851,409.512604 
z"/>
<path fill="#FFFFFF" opacity="1.000000" stroke="none" 
	d="
M511.089630,280.537537 
	C510.975159,281.303680 510.783020,281.606812 510.316345,281.895691 
	C507.169922,280.254730 504.468750,277.832336 501.389648,277.171875 
	C495.525604,275.914093 489.460083,275.428345 483.451385,275.062073 
	C477.922333,274.724976 474.225708,273.153656 472.853638,266.958740 
	C471.661713,261.577057 469.236694,256.414032 466.919220,251.354767 
	C465.316803,247.856537 466.276733,245.017807 468.216095,242.365631 
	C472.237244,236.866638 476.297882,231.375977 480.682983,226.168823 
	C486.391022,219.390808 486.640503,214.636368 480.617554,208.139450 
	C473.579803,200.547836 466.382477,193.101990 459.162231,185.682571 
	C454.925629,181.329102 447.638397,181.792526 441.667114,186.930710 
	C438.197601,189.916138 435.066010,193.298676 431.829926,196.549835 
	C427.376831,201.023743 423.078552,200.861206 416.471130,197.298386 
	C411.436188,194.583466 405.955780,192.401535 400.416901,190.988647 
	C393.523621,189.230240 392.922546,183.929611 392.039948,178.588699 
	C391.221619,173.636353 390.919922,168.591110 389.955322,163.672180 
	C388.444336,155.966934 383.400391,151.995972 375.751495,151.994492 
	C367.101807,151.992813 358.426514,152.402451 349.810822,151.861328 
	C343.299225,151.452347 338.067749,155.244598 336.967194,163.332886 
	C336.097534,169.724670 335.283630,176.151932 333.836029,182.422836 
	C333.289520,184.790283 331.334900,187.081711 329.481873,188.837555 
	C326.980072,191.208130 324.215332,190.472092 322.369598,187.732071 
	C317.909149,181.110229 313.599762,174.385910 309.273651,167.674408 
	C301.518188,155.642700 293.768494,143.607117 286.066345,131.541245 
	C278.536407,119.745064 271.098846,107.889854 263.563141,96.097366 
	C258.644623,88.400444 253.711578,80.709274 248.580139,73.154716 
	C247.434937,71.468719 245.431305,70.365829 243.470032,68.976303 
	C244.250946,68.638786 245.384583,68.040382 246.518494,68.039825 
	C334.433624,67.996483 422.348755,68.000076 511.011963,68.000076 
	C511.011963,138.730820 511.011963,209.402695 511.089630,280.537537 
z"/>
<path fill="#FFFFFF" opacity="1.000000" stroke="none" 
	d="
M339.605225,450.957520 
	C338.578125,451.360077 337.278168,451.959320 335.977966,451.959839 
	C226.001190,452.002838 116.024376,451.999512 6.047564,451.999420 
	C5.232648,451.999420 4.417733,451.999390 3.003043,451.999390 
	C3.003043,443.228394 3.003043,434.634369 3.024461,425.579651 
	C6.536658,430.080719 10.851385,432.193085 17.365515,432.176514 
	C113.998528,431.930634 210.632355,432.007416 307.265991,432.002228 
	C308.927460,432.002136 310.991669,432.531769 312.153381,431.751007 
	C313.781769,430.656647 315.255402,428.707947 315.779602,426.839722 
	C316.072205,425.796906 314.635315,423.564331 313.419708,422.918640 
	C306.216492,419.092712 298.927673,415.398682 291.473907,412.097717 
	C289.940765,411.418732 287.156555,411.988953 285.691895,413.029327 
	C281.451111,416.041534 277.632141,419.640625 273.562286,422.902893 
	C270.847992,425.078522 264.666199,424.225739 262.325836,421.829803 
	C255.870071,415.220734 249.187714,408.831696 242.782822,402.174896 
	C240.198364,399.488861 238.273636,396.175232 235.744507,393.427124 
	C231.823227,389.166321 234.908997,385.840118 237.059296,382.567749 
	C239.813828,378.375824 242.576614,374.062134 246.057236,370.507202 
	C250.281235,366.193054 247.718323,362.515869 246.075806,358.572876 
	C242.926773,351.013367 240.259003,343.175232 236.267395,336.085632 
	C234.794891,333.470184 230.308167,332.071045 226.915421,331.136139 
	C222.424042,329.898499 217.623856,329.834259 213.016418,328.952240 
	C206.449188,327.695038 204.187531,325.183929 204.062378,318.440826 
	C203.858398,307.448364 203.798874,296.443420 204.110474,285.456024 
	C204.233810,281.106812 205.788818,277.579620 211.395981,276.785248 
	C217.527222,275.916626 223.405350,273.373596 229.519608,272.237671 
	C234.450470,271.321655 236.353607,267.816345 238.394516,264.137848 
	C242.110916,257.439423 245.781219,250.715408 249.503128,244.020065 
	C252.307129,238.975952 250.309769,233.516571 244.853760,228.241989 
	C238.294205,221.900543 232.270493,215.003342 226.044952,208.318649 
	C223.698120,205.798706 221.673004,202.923096 219.079651,200.701797 
	C215.113190,197.304382 210.036285,197.487167 205.105957,201.460510 
	C194.906570,209.680161 184.980133,218.237595 174.880646,226.582535 
	C169.867035,230.725174 164.828552,234.858215 159.545929,238.638748 
	C158.386215,239.468674 156.141769,238.782867 154.396851,238.795074 
	C154.928604,237.560852 155.312286,236.234360 156.014984,235.106659 
	C163.025406,223.856171 169.956635,212.552887 177.173096,201.435165 
	C184.618713,189.964386 192.424377,178.727905 199.943451,167.303986 
	C205.399963,159.013763 210.613480,150.564026 215.995132,142.223999 
	C221.625259,133.498901 227.339340,124.828018 232.990631,116.116524 
	C235.037613,112.961113 236.733322,114.772202 238.022430,116.629951 
	C241.782516,122.048584 245.367249,127.589325 248.998322,133.096954 
	C255.707993,143.274246 262.426727,153.445709 269.094818,163.650208 
	C275.234924,173.046722 281.286835,182.500885 287.436096,191.891373 
	C289.162994,194.528473 291.163361,196.985504 292.917786,199.605820 
	C295.144135,202.930984 293.566620,205.269623 290.943756,207.588333 
	C284.864471,212.962570 278.061340,217.837402 273.180542,224.170120 
	C266.508392,232.827042 260.937622,242.423035 255.643448,252.029160 
	C248.873215,264.313446 246.043945,277.705536 244.765640,291.756042 
	C243.289932,307.976379 245.367813,323.514191 250.027100,338.852661 
	C252.316132,346.388092 255.297806,353.580963 260.293762,360.009888 
	C266.175629,367.578857 269.974426,377.089722 276.778259,383.542328 
	C286.666504,392.920013 296.425568,403.047180 309.630554,408.242340 
	C315.551605,410.571838 321.636047,412.552338 327.345825,415.312836 
	C329.090027,416.156128 330.466827,418.933655 330.921356,421.058594 
	C332.539642,428.624420 333.636749,436.300415 335.067719,443.908997 
	C335.292908,445.106415 336.225037,446.170898 336.950745,447.923279 
	C337.366821,448.740143 337.662537,448.930542 337.958221,449.120941 
	C338.416229,449.705566 338.874268,450.290161 339.605225,450.957520 
z"/>
<path fill="#FFFFFF" opacity="1.000000" stroke="none" 
	d="
M397.585938,370.777954 
	C390.662476,373.343018 384.239685,376.644165 377.445251,377.848083 
	C369.725952,379.215820 361.675842,378.755585 353.766876,379.005035 
	C341.518097,379.391418 330.681549,374.708649 320.527863,368.695984 
	C311.841339,363.552155 304.677734,356.503082 298.586517,348.265472 
	C292.757050,340.381775 288.564209,331.862366 285.951965,322.500610 
	C282.706421,310.869202 282.132507,299.121765 283.947235,287.140350 
	C286.489349,270.356750 294.297150,256.160370 306.179657,244.637802 
	C317.287140,233.866760 330.756042,226.683319 346.385223,223.940018 
	C364.194000,220.814117 380.762665,223.742981 396.721100,232.114014 
	C409.641754,238.891556 419.824432,248.490631 427.142273,260.849701 
	C433.505585,271.596649 438.330200,283.016571 438.086304,296.061096 
	C437.893311,306.384064 439.057007,317.020599 434.777832,326.589417 
	C430.744843,335.607697 425.616882,344.296509 419.866089,352.340637 
	C414.276611,360.159180 406.292664,365.764679 397.585938,370.777954 
z"/>
<path fill="#FFFFFF" opacity="1.000000" stroke="none" 
	d="
M509.659424,325.996277 
	C510.335419,327.010925 510.956390,328.183563 510.957855,329.356964 
	C511.007477,369.481567 510.998383,409.606201 510.997803,449.730865 
	C510.997803,450.351868 510.997803,450.972839 510.997803,451.864380 
	C467.210510,451.864380 423.807068,451.864380 380.261536,451.452820 
	C384.653931,449.439819 387.472717,444.771606 388.074615,439.181519 
	C388.783691,432.595978 389.818970,426.027008 391.146088,419.539459 
	C391.483582,417.889496 393.169037,415.947113 394.737122,415.216614 
	C401.113892,412.246063 407.759277,409.855957 414.164856,406.942413 
	C420.438965,404.088654 423.506104,404.343872 428.255188,408.760681 
	C432.265411,412.490387 436.196533,416.321198 440.398071,419.825012 
	C445.523132,424.098999 451.698853,424.326569 456.439331,419.239624 
	C463.932678,411.198700 472.031219,403.720520 479.902283,396.033478 
	C481.975525,394.008728 481.932800,385.620667 479.875549,382.952057 
	C476.143127,378.110535 472.669678,373.060089 468.778320,368.352966 
	C464.523590,363.206360 463.006470,358.311646 466.889221,352.002594 
	C469.875366,347.150421 471.529327,341.493042 474.018890,336.310547 
	C474.655212,334.985931 476.080200,333.372498 477.369934,333.137390 
	C485.966736,331.570312 494.646515,330.460480 503.248291,328.917358 
	C505.367706,328.537170 507.298157,327.103821 509.659424,325.996277 
z"/>
<path fill="#000000" opacity="1.000000" stroke="none" 
	d="
M337.887756,448.896118 
	C337.662537,448.930542 337.366821,448.740143 337.117340,448.281952 
	C337.460144,448.154938 337.678070,448.373962 337.887756,448.896118 
z"/>
</svg>